<svg xmlns="http://www.w3.org/2000/svg" width="512" height="512" viewBox="0 0 53 53" shape-rendering="crispEdges"><path fill="#ffffff" d="M0 0h53v53H0z"/><path stroke="#000000" d="M2 2.5h7m1 0h2m1 0h2m6 0h1m1 0h1m1 0h1m2 0h1m2 0h2m4 0h2m3 0h1m1 0h7M2 3.5h1m5 0h1m1 0h1m1 0h2m1 0h1m1 0h1m1 0h2m3 0h4m2 0h1m1 0h2m1 0h3m2 0h3m1 0h1m5 0h1M2 4.5h1m1 0h3m1 0h1m1 0h4m6 0h4m1 0h2m1 0h4m4 0h1m4 0h2m1 0h1m1 0h3m1 0h1M2 5.5h1m1 0h3m1 0h1m3 0h1m2 0h1m4 0h5m3 0h1m2 0h2m2 0h5m1 0h1m2 0h1m1 0h3m1 0h1M2 6.5h1m1 0h3m1 0h1m4 0h1m2 0h13m4 0h1m4 0h2m4 0h1m1 0h3m1 0h1M2 7.5h1m5 0h1m1 0h1m2 0h1m1 0h1m2 0h1m1 0h2m1 0h2m3 0h2m3 0h1m1 0h2m3 0h1m3 0h1m5 0h1M2 8.5h7m1 0h1m1 0h1m1 0h1m1 0h1m1 0h1m1 0h1m1 0h1m1 0h1m1 0h1m1 0h1m1 0h1m1 0h1m1 0h1m1 0h1m1 0h1m1 0h1m1 0h1m1 0h7M10 9.5h6m1 0h3m1 0h2m1 0h1m3 0h1m2 0h2m1 0h2m2 0h2M4 10.5h3m1 0h1m1 0h7m1 0h4m2 0h5m1 0h1m1 0h2m1 0h3m1 0h1m1 0h5m2 0h3M2 11.5h4m4 0h1m2 0h4m3 0h1m4 0h1m3 0h1m1 0h2m2 0h1m3 0h1m3 0h3m2 0h1M4 12.5h2m1 0h2m1 0h2m1 0h2m1 0h1m1 0h1m2 0h2m2 0h3m2 0h1m1 0h6m2 0h1m2 0h1m1 0h2m2 0h2M2 13.5h2m1 0h3m7 0h2m1 0h1m1 0h1m1 0h5m1 0h7m1 0h1m1 0h2m1 0h1m1 0h2m1 0h1M2 14.5h3m2 0h2m1 0h2m2 0h3m3 0h1m1 0h1m3 0h4m1 0h1m3 0h2m1 0h2m1 0h2m1 0h2m2 0h1M2 15.5h1m4 0h1m1 0h2m1 0h1m2 0h1m2 0h1m1 0h1m2 0h2m2 0h1m2 0h2m4 0h2m1 0h1m1 0h1m1 0h2m1 0h2M5 16.5h1m1 0h2m1 0h1m1 0h1m1 0h1m5 0h1m1 0h1m1 0h2m1 0h1m2 0h2m3 0h1m1 0h1m2 0h3m2 0h2m2 0h2M2 17.5h2m2 0h1m2 0h2m1 0h1m2 0h1m5 0h4m1 0h1m1 0h3m1 0h2m1 0h1m1 0h1m3 0h3m2 0h2m2 0h1M3 18.5h2m2 0h2m1 0h1m8 0h4m2 0h2m1 0h2m1 0h1m1 0h1m3 0h3m1 0h1m3 0h1m3 0h1M4 19.5h2m4 0h1m1 0h3m4 0h3m2 0h2m1 0h4m1 0h4m1 0h2m3 0h2m1 0h4M2 20.5h1m2 0h2m1 0h2m1 0h3m1 0h1m2 0h1m1 0h5m1 0h1m1 0h1m1 0h3m1 0h1m2 0h3m1 0h2m1 0h1m2 0h1m1 0h2M7 21.5h1m2 0h2m1 0h2m1 0h1m3 0h1m2 0h4m1 0h5m2 0h1m3 0h2m1 0h1m1 0h3m2 0h2M3 22.5h2m2 0h2m2 0h4m1 0h1m1 0h1m2 0h2m5 0h3m1 0h1m1 0h1m3 0h5m1 0h2m2 0h1M2 23.5h3m1 0h2m1 0h1m1 0h1m2 0h1m2 0h1m3 0h1m1 0h2m4 0h1m4 0h1m8 0h2m2 0h1M2 24.5h2m2 0h6m1 0h2m1 0h2m1 0h1m1 0h1m2 0h8m1 0h4m1 0h1m1 0h7m2 0h2M3 25.5h2m1 0h1m3 0h1m1 0h1m3 0h1m4 0h2m1 0h1m3 0h1m2 0h1m3 0h1m4 0h1m1 0h1m3 0h1m2 0h2M3 26.5h2m1 0h1m1 0h1m1 0h4m2 0h3m5 0h1m1 0h1m1 0h7m1 0h1m1 0h2m1 0h2m1 0h1m1 0h3m1 0h1M4 27.5h3m3 0h3m1 0h6m1 0h4m3 0h1m5 0h1m3 0h1m2 0h2m3 0h2m2 0h1M2 28.5h1m2 0h7m1 0h2m3 0h1m4 0h6m1 0h1m2 0h4m2 0h8m2 0h1M4 29.5h2m1 0h1m2 0h1m3 0h2m5 0h3m2 0h1m4 0h3m1 0h2m3 0h1m1 0h2m1 0h1M3 30.5h1m2 0h4m1 0h4m2 0h1m1 0h3m1 0h2m3 0h2m1 0h2m4 0h2m2 0h1m3 0h1m1 0h3M3 31.5h1m2 0h1m2 0h1m1 0h2m2 0h1m1 0h2m2 0h1m2 0h1m2 0h2m4 0h1m5 0h1m1 0h1m2 0h1m2 0h1M3 32.5h1m4 0h1m1 0h3m1 0h1m4 0h1m2 0h2m2 0h2m1 0h3m3 0h2m2 0h2m1 0h4m2 0h1m1 0h1M2 33.5h3m1 0h1m3 0h1m1 0h5m2 0h1m1 0h3m1 0h2m5 0h2m2 0h5m1 0h2m5 0h2M3 34.5h3m2 0h3m2 0h2m1 0h1m1 0h4m2 0h2m2 0h2m2 0h1m5 0h1m2 0h4m1 0h1m1 0h3M2 35.5h1m1 0h1m7 0h2m1 0h1m5 0h1m1 0h4m2 0h1m3 0h1m3 0h3m1 0h1m1 0h1m1 0h1m1 0h1M6 36.5h1m1 0h1m1 0h4m1 0h2m2 0h1m1 0h4m2 0h4m4 0h2m1 0h3m2 0h3m1 0h4M2 37.5h1m2 0h2m2 0h3m1 0h3m3 0h1m1 0h1m1 0h3m3 0h1m1 0h2m2 0h1m6 0h1m2 0h1m3 0h1M3 38.5h2m1 0h3m4 0h2m2 0h1m4 0h1m1 0h2m3 0h2m2 0h2m3 0h5m1 0h1m1 0h4M3 39.5h3m3 0h1m1 0h7m2 0h1m5 0h1m5 0h1m1 0h2m2 0h2m1 0h3m4 0h1M3 40.5h1m3 0h3m1 0h2m1 0h1m1 0h4m2 0h2m2 0h1m4 0h4m2 0h14M3 41.5h3m3 0h3m1 0h1m1 0h2m3 0h1m1 0h1m2 0h2m1 0h1m3 0h3m1 0h1m2 0h2m7 0h1m1 0h1M2 42.5h3m3 0h3m1 0h2m1 0h1m2 0h1m2 0h1m1 0h6m1 0h2m3 0h4m1 0h8m1 0h1M10 43.5h3m1 0h1m3 0h3m2 0h2m3 0h3m1 0h1m3 0h1m1 0h3m1 0h1m3 0h1M2 44.5h7m2 0h2m1 0h5m2 0h1m1 0h2m1 0h1m1 0h2m2 0h1m1 0h2m1 0h2m3 0h1m1 0h1m1 0h2m1 0h2M2 45.5h1m5 0h1m2 0h1m1 0h1m2 0h1m3 0h1m2 0h2m3 0h2m2 0h1m1 0h1m1 0h1m2 0h4m3 0h1m3 0h1M2 46.5h1m1 0h3m1 0h1m1 0h1m1 0h2m2 0h1m2 0h1m1 0h1m1 0h6m2 0h2m3 0h11m1 0h1M2 47.5h1m1 0h3m1 0h1m1 0h1m2 0h2m1 0h2m1 0h1m1 0h3m1 0h1m1 0h1m2 0h1m2 0h2m2 0h3m6 0h1m1 0h1m1 0h1M2 48.5h1m1 0h3m1 0h1m1 0h1m1 0h1m1 0h1m2 0h2m3 0h2m3 0h1m4 0h3m1 0h6m1 0h2m3 0h3M2 49.5h1m5 0h1m4 0h1m2 0h4m1 0h1m1 0h1m1 0h1m1 0h2m5 0h1m1 0h2m1 0h1m3 0h2m1 0h1m3 0h1M2 50.5h7m5 0h1m1 0h2m3 0h2m2 0h3m5 0h1m2 0h1m1 0h4m1 0h1m4 0h3"/></svg>
